# xmcd
#
# Track frame offsets:
# 150
# 14970
# 37530
# 53597
#
# Disc length: 1042 seconds
#
# Revision: 1
# Processed by: cddbd v1.5.2PL0 Copyright (c) Steve Scherf et al.
# Submitted via: CedeCatalogueitor 2.6.0.6 http://personales.ya.com/cdcatalogueitor
#
DISCID=26041004
DTITLE=Grinderman - Palaces Of Montezuma
DYEAR=1900
DGENRE=
TTITLE0=Palaces Of Montezuma
TTITLE1=Palaces Of Montezuma
TTITLE2=Palaces Of Montezuma
TTITLE3=When My Baby Comes
EXTD=
EXTT0=
EXTT1=
EXTT2=
EXTT3=
PLAYORDER=
